<?xml version="1.0" standalone="no"?><!DOCTYPE svg PUBLIC "-//W3C//DTD SVG 1.1//EN" "http://www.w3.org/Graphics/SVG/1.1/DTD/svg11.dtd"><svg t="1592835120917" class="icon" viewBox="0 0 1024 1024" version="1.1" xmlns="http://www.w3.org/2000/svg" p-id="1982" xmlns:xlink="http://www.w3.org/1999/xlink" width="200" height="200"><defs><style type="text/css">html, * { user-select: text !important; }
</style></defs><path d="M0 0m28.444444 0l398.222223 0q28.444444 0 28.444444 28.444444l0 398.222223q0 28.444444-28.444444 28.444444l-398.222223 0q-28.444444 0-28.444444-28.444444l0-398.222223q0-28.444444 28.444444-28.444444Z" p-id="1983" fill="#2c2c2c"></path><path d="M0 568.888889m28.444444 0l398.222223 0q28.444444 0 28.444444 28.444444l0 398.222223q0 28.444444-28.444444 28.444444l-398.222223 0q-28.444444 0-28.444444-28.444444l0-398.222223q0-28.444444 28.444444-28.444444Z" p-id="1984" fill="#2c2c2c"></path><path d="M568.888889 0m28.444444 0l398.222223 0q28.444444 0 28.444444 28.444444l0 398.222223q0 28.444444-28.444444 28.444444l-398.222223 0q-28.444444 0-28.444444-28.444444l0-398.222223q0-28.444444 28.444444-28.444444Z" p-id="1985" fill="#2c2c2c"></path><path d="M568.888889 568.888889m28.444444 0l398.222223 0q28.444444 0 28.444444 28.444444l0 398.222223q0 28.444444-28.444444 28.444444l-398.222223 0q-28.444444 0-28.444444-28.444444l0-398.222223q0-28.444444 28.444444-28.444444Z" p-id="1986" fill="#2c2c2c"></path></svg>