<?xml version="1.0" standalone="no"?><!DOCTYPE svg PUBLIC "-//W3C//DTD SVG 1.1//EN" "http://www.w3.org/Graphics/SVG/1.1/DTD/svg11.dtd"><svg t="1592835219465" class="icon" viewBox="0 0 1024 1024" version="1.1" xmlns="http://www.w3.org/2000/svg" p-id="4472" xmlns:xlink="http://www.w3.org/1999/xlink" width="200" height="200"><defs><style type="text/css">html, * { user-select: text !important; }
</style></defs><path d="M512 581.818182c-154.228364 0-279.272727-125.044364-279.272727-279.272727S357.771636 23.272727 512 23.272727s279.272727 125.044364 279.272727 279.272728-125.044364 279.272727-279.272727 279.272727z m0-69.818182a209.454545 209.454545 0 1 0 0-418.909091 209.454545 209.454545 0 0 0 0 418.909091z" p-id="4473" fill="#2c2c2c"></path><path d="M989.090909 965.818182a34.909091 34.909091 0 0 1-69.818182 0C919.272727 754.176 737.349818 581.818182 512 581.818182S104.727273 754.176 104.727273 965.818182a34.909091 34.909091 0 0 1-69.818182 0C34.909091 714.752 248.925091 512 512 512s477.090909 202.752 477.090909 453.818182z" p-id="4474" fill="#2c2c2c"></path></svg>